<svg xmlns="http://www.w3.org/2000/svg" version="1.1" xmlns:xlink="http://www.w3.org/1999/xlink" width="136" height="136"><svg width="136" height="136" viewBox="0 0 136 136" fill="none" xmlns="http://www.w3.org/2000/svg">
<g clip-path="url(#clip0_1_15)">
<rect width="136" height="136" fill="#D4EFE2" style="fill:#D4EFE2;fill:color(display-p3 0.8314 0.9373 0.8863);fill-opacity:1;"></rect>
<rect width="55.5434" height="55.5434" rx="6" transform="matrix(0.866025 0.5 -0.866025 0.5 131.144 -29.9199)" fill="#56B1A3" style="fill:#56B1A3;fill:color(display-p3 0.3373 0.6941 0.6392);fill-opacity:1;"></rect>
<rect width="55.5434" height="55.5434" rx="6" transform="matrix(0.866025 0.5 -0.866025 0.5 9.62292 -29.9199)" fill="#92D4C6" style="fill:#92D4C6;fill:color(display-p3 0.5725 0.8314 0.7765);fill-opacity:1;"></rect>
<rect width="55.5434" height="55.5434" rx="6" transform="matrix(0.866025 0.5 -0.866025 0.5 70.3834 5.16014)" fill="#C1E8DA" style="fill:#C1E8DA;fill:color(display-p3 0.7569 0.9098 0.8549);fill-opacity:1;"></rect>
<rect width="55.5434" height="55.5434" rx="6" transform="matrix(0.866025 0.5 -0.866025 0.5 131.144 40.2402)" fill="#92D4C6" style="fill:#92D4C6;fill:color(display-p3 0.5725 0.8314 0.7765);fill-opacity:1;"></rect>
<rect width="55.5434" height="55.5434" rx="6" transform="matrix(0.866025 0.5 -0.866025 0.5 9.62292 40.2402)" fill="#56B1A3" style="fill:#56B1A3;fill:color(display-p3 0.3373 0.6941 0.6392);fill-opacity:1;"></rect>
<rect width="55.5434" height="55.5434" rx="6" transform="matrix(0.866025 0.5 -0.866025 0.5 70.3834 75.3203)" fill="#21877F" style="fill:#21877F;fill:color(display-p3 0.1294 0.5294 0.4980);fill-opacity:1;"></rect>
<rect width="55.5434" height="55.5434" rx="6" transform="matrix(0.866025 0.5 -0.866025 0.5 131.144 110.4)" fill="#56B1A3" style="fill:#56B1A3;fill:color(display-p3 0.3373 0.6941 0.6392);fill-opacity:1;"></rect>
<rect width="55.5434" height="55.5434" rx="6" transform="matrix(0.866025 0.5 -0.866025 0.5 9.62292 110.4)" fill="#92D4C6" style="fill:#92D4C6;fill:color(display-p3 0.5725 0.8314 0.7765);fill-opacity:1;"></rect>
</g>
<defs>
<clipPath id="SvgjsClipPath1013">
<rect width="136" height="136" fill="white" style="fill:white;fill-opacity:1;"></rect>
</clipPath>
</defs>
</svg><style>@media (prefers-color-scheme: light) { :root { filter: none; } }
@media (prefers-color-scheme: dark) { :root { filter: none; } }
</style></svg>